<?xml version="1.0" encoding="UTF-8"?>
<!DOCTYPE svg PUBLIC "-//W3C//DTD SVG 1.1//EN" "http://www.w3.org/Graphics/SVG/1.1/DTD/svg11.dtd">
<svg width="458mm" height="226mm" viewBox="0 0 45800 22600" version="1.1" xmlns="http://www.w3.org/2000/svg" xmlns:xlink="http://www.w3.org/1999/xlink" stroke-width="28.222" stroke-linejoin="round" xml:space="preserve">
 <path fill="rgb(255,255,255)" stroke="none" d="M 22887,22638 L 0,22638 0,0 45775,0 45775,22638 22887,22638 Z"/>
 <path fill="none" stroke="rgb(179,179,179)" stroke-linejoin="round" d="M 23119,21539 L 1378,21539 1378,2044 44860,2044 44860,21539 23119,21539 Z"/>
 <path fill="none" stroke="rgb(179,179,179)" stroke-linejoin="round" d="M 44860,21538 L 1378,21538"/>
 <path fill="none" stroke="rgb(179,179,179)" stroke-linejoin="round" d="M 44860,18752 L 1378,18752"/>
 <path fill="none" stroke="rgb(179,179,179)" stroke-linejoin="round" d="M 44860,15967 L 1378,15967"/>
 <path fill="none" stroke="rgb(179,179,179)" stroke-linejoin="round" d="M 44860,13182 L 1378,13182"/>
 <path fill="none" stroke="rgb(179,179,179)" stroke-linejoin="round" d="M 44860,10398 L 1378,10398"/>
 <path fill="none" stroke="rgb(179,179,179)" stroke-linejoin="round" d="M 44860,7613 L 1378,7613"/>
 <path fill="none" stroke="rgb(179,179,179)" stroke-linejoin="round" d="M 44860,4828 L 1378,4828"/>
 <path fill="none" stroke="rgb(179,179,179)" stroke-linejoin="round" d="M 44860,2043 L 1378,2043"/>
 <path fill="none" stroke="rgb(179,179,179)" stroke-linejoin="round" d="M 1378,21688 L 1378,21538"/>
 <path fill="none" stroke="rgb(179,179,179)" stroke-linejoin="round" d="M 1378,21688 L 1378,21538"/>
 <path fill="none" stroke="rgb(179,179,179)" stroke-linejoin="round" d="M 5331,21688 L 5331,21538"/>
 <path fill="none" stroke="rgb(179,179,179)" stroke-linejoin="round" d="M 5331,21688 L 5331,21538"/>
 <path fill="none" stroke="rgb(179,179,179)" stroke-linejoin="round" d="M 9284,21688 L 9284,21538"/>
 <path fill="none" stroke="rgb(179,179,179)" stroke-linejoin="round" d="M 9284,21688 L 9284,21538"/>
 <path fill="none" stroke="rgb(179,179,179)" stroke-linejoin="round" d="M 13237,21688 L 13237,21538"/>
 <path fill="none" stroke="rgb(179,179,179)" stroke-linejoin="round" d="M 13237,21688 L 13237,21538"/>
 <path fill="none" stroke="rgb(179,179,179)" stroke-linejoin="round" d="M 17190,21688 L 17190,21538"/>
 <path fill="none" stroke="rgb(179,179,179)" stroke-linejoin="round" d="M 17190,21688 L 17190,21538"/>
 <path fill="none" stroke="rgb(179,179,179)" stroke-linejoin="round" d="M 21143,21688 L 21143,21538"/>
 <path fill="none" stroke="rgb(179,179,179)" stroke-linejoin="round" d="M 21143,21688 L 21143,21538"/>
 <path fill="none" stroke="rgb(179,179,179)" stroke-linejoin="round" d="M 25095,21688 L 25095,21538"/>
 <path fill="none" stroke="rgb(179,179,179)" stroke-linejoin="round" d="M 25095,21688 L 25095,21538"/>
 <path fill="none" stroke="rgb(179,179,179)" stroke-linejoin="round" d="M 29048,21688 L 29048,21538"/>
 <path fill="none" stroke="rgb(179,179,179)" stroke-linejoin="round" d="M 29048,21688 L 29048,21538"/>
 <path fill="none" stroke="rgb(179,179,179)" stroke-linejoin="round" d="M 33001,21688 L 33001,21538"/>
 <path fill="none" stroke="rgb(179,179,179)" stroke-linejoin="round" d="M 33001,21688 L 33001,21538"/>
 <path fill="none" stroke="rgb(179,179,179)" stroke-linejoin="round" d="M 36954,21688 L 36954,21538"/>
 <path fill="none" stroke="rgb(179,179,179)" stroke-linejoin="round" d="M 36954,21688 L 36954,21538"/>
 <path fill="none" stroke="rgb(179,179,179)" stroke-linejoin="round" d="M 40907,21688 L 40907,21538"/>
 <path fill="none" stroke="rgb(179,179,179)" stroke-linejoin="round" d="M 40907,21688 L 40907,21538"/>
 <path fill="none" stroke="rgb(179,179,179)" stroke-linejoin="round" d="M 44860,21688 L 44860,21538"/>
 <path fill="none" stroke="rgb(179,179,179)" stroke-linejoin="round" d="M 44860,21688 L 44860,21538"/>
 <path fill="none" stroke="rgb(179,179,179)" stroke-linejoin="round" d="M 1378,21538 L 44860,21538"/>
 <path fill="none" stroke="rgb(179,179,179)" stroke-linejoin="round" d="M 1228,21538 L 1378,21538"/>
 <path fill="none" stroke="rgb(179,179,179)" stroke-linejoin="round" d="M 1228,21538 L 1378,21538"/>
 <path fill="none" stroke="rgb(179,179,179)" stroke-linejoin="round" d="M 1228,18752 L 1378,18752"/>
 <path fill="none" stroke="rgb(179,179,179)" stroke-linejoin="round" d="M 1228,18752 L 1378,18752"/>
 <path fill="none" stroke="rgb(179,179,179)" stroke-linejoin="round" d="M 1228,15967 L 1378,15967"/>
 <path fill="none" stroke="rgb(179,179,179)" stroke-linejoin="round" d="M 1228,15967 L 1378,15967"/>
 <path fill="none" stroke="rgb(179,179,179)" stroke-linejoin="round" d="M 1228,13182 L 1378,13182"/>
 <path fill="none" stroke="rgb(179,179,179)" stroke-linejoin="round" d="M 1228,13182 L 1378,13182"/>
 <path fill="none" stroke="rgb(179,179,179)" stroke-linejoin="round" d="M 1228,10398 L 1378,10398"/>
 <path fill="none" stroke="rgb(179,179,179)" stroke-linejoin="round" d="M 1228,10398 L 1378,10398"/>
 <path fill="none" stroke="rgb(179,179,179)" stroke-linejoin="round" d="M 1228,7613 L 1378,7613"/>
 <path fill="none" stroke="rgb(179,179,179)" stroke-linejoin="round" d="M 1228,7613 L 1378,7613"/>
 <path fill="none" stroke="rgb(179,179,179)" stroke-linejoin="round" d="M 1228,4828 L 1378,4828"/>
 <path fill="none" stroke="rgb(179,179,179)" stroke-linejoin="round" d="M 1228,4828 L 1378,4828"/>
 <path fill="none" stroke="rgb(179,179,179)" stroke-linejoin="round" d="M 1228,2043 L 1378,2043"/>
 <path fill="none" stroke="rgb(179,179,179)" stroke-linejoin="round" d="M 1228,2043 L 1378,2043"/>
 <path fill="none" stroke="rgb(179,179,179)" stroke-linejoin="round" d="M 1378,21538 L 1378,2043"/>
 <path fill="rgb(0,69,134)" stroke="none" d="M 41895,21538 L 43871,21538 43871,21385 41895,21385 41895,21538 Z"/>
 <path fill="rgb(0,69,134)" stroke="none" d="M 37942,21538 L 39918,21538 39918,21447 37942,21447 37942,21538 Z"/>
 <path fill="rgb(0,69,134)" stroke="none" d="M 33989,21538 L 35965,21538 35965,21460 33989,21460 33989,21538 Z"/>
 <path fill="rgb(0,69,134)" stroke="none" d="M 30036,21538 L 32012,21538 32012,21322 30036,21322 30036,21538 Z"/>
 <path fill="rgb(0,69,134)" stroke="none" d="M 26083,21538 L 28059,21538 28059,21290 26083,21290 26083,21538 Z"/>
 <path fill="rgb(0,69,134)" stroke="none" d="M 22131,21538 L 24106,21538 24106,21342 22131,21342 22131,21538 Z"/>
 <path fill="rgb(0,69,134)" stroke="none" d="M 18178,21538 L 20154,21538 20154,4238 18178,4238 18178,21538 Z"/>
 <path fill="rgb(0,69,134)" stroke="none" d="M 14225,21538 L 16201,21538 16201,21287 14225,21287 14225,21538 Z"/>
 <path fill="rgb(0,69,134)" stroke="none" d="M 10272,21538 L 12248,21538 12248,21272 10272,21272 10272,21538 Z"/>
 <path fill="rgb(0,69,134)" stroke="none" d="M 6319,21538 L 8295,21538 8295,21256 6319,21256 6319,21538 Z"/>
 <path fill="rgb(0,69,134)" stroke="none" d="M 2366,21538 L 4342,21538 4342,20331 2366,20331 2366,21538 Z"/>
 <text class="TextShape"><tspan class="TextParagraph" font-family="DejaVu Sans, sans-serif" font-size="353px" font-weight="400"><tspan class="TextPosition" x="1991" y="22106"><tspan fill="rgb(0,0,0)" stroke="none">Chebyshev k=1</tspan></tspan></tspan></text>
 <text class="TextShape"><tspan class="TextParagraph" font-family="DejaVu Sans, sans-serif" font-size="353px" font-weight="400"><tspan class="TextPosition" x="5944" y="22106"><tspan fill="rgb(0,0,0)" stroke="none">Chebyshev k=2</tspan></tspan></tspan></text>
 <text class="TextShape"><tspan class="TextParagraph" font-family="DejaVu Sans, sans-serif" font-size="353px" font-weight="400"><tspan class="TextPosition" x="9897" y="22106"><tspan fill="rgb(0,0,0)" stroke="none">Chebyshev k=3</tspan></tspan></tspan></text>
 <text class="TextShape"><tspan class="TextParagraph" font-family="DejaVu Sans, sans-serif" font-size="353px" font-weight="400"><tspan class="TextPosition" x="13850" y="22106"><tspan fill="rgb(0,0,0)" stroke="none">Chebyshev k=4</tspan></tspan></tspan></text>
 <text class="TextShape"><tspan class="TextParagraph" font-family="DejaVu Sans, sans-serif" font-size="353px" font-weight="400"><tspan class="TextPosition" x="18650" y="22106"><tspan fill="rgb(0,0,0)" stroke="none">Jacobi</tspan></tspan></tspan></text>
 <text class="TextShape"><tspan class="TextParagraph" font-family="DejaVu Sans, sans-serif" font-size="353px" font-weight="400"><tspan class="TextPosition" x="22325" y="22106"><tspan fill="rgb(0,0,0)" stroke="none">Legendre</tspan></tspan></tspan></text>
 <text class="TextShape"><tspan class="TextParagraph" font-family="DejaVu Sans, sans-serif" font-size="353px" font-weight="400"><tspan class="TextPosition" x="26424" y="22106"><tspan fill="rgb(0,0,0)" stroke="none">Lobatto</tspan></tspan></tspan></text>
 <text class="TextShape"><tspan class="TextParagraph" font-family="DejaVu Sans, sans-serif" font-size="353px" font-weight="400"><tspan class="TextPosition" x="30482" y="22106"><tspan fill="rgb(0,0,0)" stroke="none">Radau</tspan></tspan></tspan></text>
 <text class="TextShape"><tspan class="TextParagraph" font-family="DejaVu Sans, sans-serif" font-size="353px" font-weight="400"><tspan class="TextPosition" x="32914" y="22106"><tspan fill="rgb(0,0,0)" stroke="none">Rectangle midpoint rule</tspan></tspan></tspan></text>
 <text class="TextShape"><tspan class="TextParagraph" font-family="DejaVu Sans, sans-serif" font-size="353px" font-weight="400"><tspan class="TextPosition" x="38044" y="22106"><tspan fill="rgb(0,0,0)" stroke="none">Simpson’s</tspan></tspan></tspan></text>
 <text class="TextShape"><tspan class="TextParagraph" font-family="DejaVu Sans, sans-serif" font-size="353px" font-weight="400"><tspan class="TextPosition" x="41878" y="22106"><tspan fill="rgb(0,0,0)" stroke="none">Trapezoidal</tspan></tspan></tspan></text>
 <text class="TextShape"><tspan class="TextParagraph" font-family="DejaVu Sans, sans-serif" font-size="353px" font-weight="400"><tspan class="TextPosition" x="916" y="21659"><tspan fill="rgb(0,0,0)" stroke="none">0</tspan></tspan></tspan></text>
 <text class="TextShape"><tspan class="TextParagraph" font-family="DejaVu Sans, sans-serif" font-size="353px" font-weight="400"><tspan class="TextPosition" x="916" y="18873"><tspan fill="rgb(0,0,0)" stroke="none">1</tspan></tspan></tspan></text>
 <text class="TextShape"><tspan class="TextParagraph" font-family="DejaVu Sans, sans-serif" font-size="353px" font-weight="400"><tspan class="TextPosition" x="916" y="16088"><tspan fill="rgb(0,0,0)" stroke="none">2</tspan></tspan></tspan></text>
 <text class="TextShape"><tspan class="TextParagraph" font-family="DejaVu Sans, sans-serif" font-size="353px" font-weight="400"><tspan class="TextPosition" x="916" y="13303"><tspan fill="rgb(0,0,0)" stroke="none">3</tspan></tspan></tspan></text>
 <text class="TextShape"><tspan class="TextParagraph" font-family="DejaVu Sans, sans-serif" font-size="353px" font-weight="400"><tspan class="TextPosition" x="916" y="10518"><tspan fill="rgb(0,0,0)" stroke="none">4</tspan></tspan></tspan></text>
 <text class="TextShape"><tspan class="TextParagraph" font-family="DejaVu Sans, sans-serif" font-size="353px" font-weight="400"><tspan class="TextPosition" x="916" y="7733"><tspan fill="rgb(0,0,0)" stroke="none">5</tspan></tspan></tspan></text>
 <text class="TextShape"><tspan class="TextParagraph" font-family="DejaVu Sans, sans-serif" font-size="353px" font-weight="400"><tspan class="TextPosition" x="916" y="4948"><tspan fill="rgb(0,0,0)" stroke="none">6</tspan></tspan></tspan></text>
 <text class="TextShape"><tspan class="TextParagraph" font-family="DejaVu Sans, sans-serif" font-size="353px" font-weight="400"><tspan class="TextPosition" x="916" y="2163"><tspan fill="rgb(0,0,0)" stroke="none">7</tspan></tspan></tspan></text>
 <text class="TextShape"><tspan class="TextParagraph" font-family="DejaVu Sans, sans-serif" font-size="353px" font-weight="400"><tspan class="TextPosition" x="2877" y="20153"><tspan fill="rgb(0,0,0)" stroke="none">0.433</tspan></tspan></tspan></text>
 <text class="TextShape"><tspan class="TextParagraph" font-family="DejaVu Sans, sans-serif" font-size="353px" font-weight="400"><tspan class="TextPosition" x="6830" y="21078"><tspan fill="rgb(0,0,0)" stroke="none">0.101</tspan></tspan></tspan></text>
 <text class="TextShape"><tspan class="TextParagraph" font-family="DejaVu Sans, sans-serif" font-size="353px" font-weight="400"><tspan class="TextPosition" x="10783" y="21094"><tspan fill="rgb(0,0,0)" stroke="none">0.095</tspan></tspan></tspan></text>
 <text class="TextShape"><tspan class="TextParagraph" font-family="DejaVu Sans, sans-serif" font-size="353px" font-weight="400"><tspan class="TextPosition" x="14736" y="21109"><tspan fill="rgb(0,0,0)" stroke="none">0.090</tspan></tspan></tspan></text>
 <text class="TextShape"><tspan class="TextParagraph" font-family="DejaVu Sans, sans-serif" font-size="353px" font-weight="400"><tspan class="TextPosition" x="18689" y="4060"><tspan fill="rgb(0,0,0)" stroke="none">6.212</tspan></tspan></tspan></text>
 <text class="TextShape"><tspan class="TextParagraph" font-family="DejaVu Sans, sans-serif" font-size="353px" font-weight="400"><tspan class="TextPosition" x="22642" y="21164"><tspan fill="rgb(0,0,0)" stroke="none">0.070</tspan></tspan></tspan></text>
 <text class="TextShape"><tspan class="TextParagraph" font-family="DejaVu Sans, sans-serif" font-size="353px" font-weight="400"><tspan class="TextPosition" x="26595" y="21112"><tspan fill="rgb(0,0,0)" stroke="none">0.089</tspan></tspan></tspan></text>
 <text class="TextShape"><tspan class="TextParagraph" font-family="DejaVu Sans, sans-serif" font-size="353px" font-weight="400"><tspan class="TextPosition" x="30548" y="21144"><tspan fill="rgb(0,0,0)" stroke="none">0.077</tspan></tspan></tspan></text>
 <text class="TextShape"><tspan class="TextParagraph" font-family="DejaVu Sans, sans-serif" font-size="353px" font-weight="400"><tspan class="TextPosition" x="34501" y="21282"><tspan fill="rgb(0,0,0)" stroke="none">0.028</tspan></tspan></tspan></text>
 <text class="TextShape"><tspan class="TextParagraph" font-family="DejaVu Sans, sans-serif" font-size="353px" font-weight="400"><tspan class="TextPosition" x="38454" y="21269"><tspan fill="rgb(0,0,0)" stroke="none">0.032</tspan></tspan></tspan></text>
 <text class="TextShape"><tspan class="TextParagraph" font-family="DejaVu Sans, sans-serif" font-size="353px" font-weight="400"><tspan class="TextPosition" x="42407" y="21207"><tspan fill="rgb(0,0,0)" stroke="none">0.055</tspan></tspan></tspan></text>
 <text class="TextShape"><tspan class="TextParagraph" font-family="DejaVu Sans, sans-serif" font-size="459px" font-weight="400"><tspan class="TextPosition" x="11594" y="1448"><tspan fill="rgb(0,0,0)" stroke="none">Root mean square of computation time (in seconds) for tests, excluding simppen test</tspan></tspan></tspan></text>
</svg>