<?xml version="1.0" encoding="UTF-8"?>
<!DOCTYPE svg PUBLIC "-//W3C//DTD SVG 1.1//EN" "http://www.w3.org/Graphics/SVG/1.1/DTD/svg11.dtd">
<svg width="501mm" height="236mm" viewBox="0 0 50100 23600" version="1.1" xmlns="http://www.w3.org/2000/svg" xmlns:xlink="http://www.w3.org/1999/xlink" stroke-width="28.222" stroke-linejoin="round" xml:space="preserve">
 <path fill="rgb(255,255,255)" stroke="none" d="M 25047,23613 L 0,23613 0,0 50094,0 50094,23613 25047,23613 Z"/>
 <path fill="none" stroke="rgb(179,179,179)" stroke-linejoin="round" d="M 25278,22494 L 1464,22494 1464,2084 49093,2084 49093,22494 25278,22494 Z"/>
 <path fill="none" stroke="rgb(179,179,179)" stroke-linejoin="round" d="M 49093,22493 L 1464,22493"/>
 <path fill="none" stroke="rgb(179,179,179)" stroke-linejoin="round" d="M 49093,19577 L 1464,19577"/>
 <path fill="none" stroke="rgb(179,179,179)" stroke-linejoin="round" d="M 49093,16661 L 1464,16661"/>
 <path fill="none" stroke="rgb(179,179,179)" stroke-linejoin="round" d="M 49093,13745 L 1464,13745"/>
 <path fill="none" stroke="rgb(179,179,179)" stroke-linejoin="round" d="M 49093,10830 L 1464,10830"/>
 <path fill="none" stroke="rgb(179,179,179)" stroke-linejoin="round" d="M 49093,7914 L 1464,7914"/>
 <path fill="none" stroke="rgb(179,179,179)" stroke-linejoin="round" d="M 49093,4998 L 1464,4998"/>
 <path fill="none" stroke="rgb(179,179,179)" stroke-linejoin="round" d="M 49093,2083 L 1464,2083"/>
 <path fill="none" stroke="rgb(179,179,179)" stroke-linejoin="round" d="M 1464,22643 L 1464,22493"/>
 <path fill="none" stroke="rgb(179,179,179)" stroke-linejoin="round" d="M 1464,22643 L 1464,22493"/>
 <path fill="none" stroke="rgb(179,179,179)" stroke-linejoin="round" d="M 5794,22643 L 5794,22493"/>
 <path fill="none" stroke="rgb(179,179,179)" stroke-linejoin="round" d="M 5794,22643 L 5794,22493"/>
 <path fill="none" stroke="rgb(179,179,179)" stroke-linejoin="round" d="M 10124,22643 L 10124,22493"/>
 <path fill="none" stroke="rgb(179,179,179)" stroke-linejoin="round" d="M 10124,22643 L 10124,22493"/>
 <path fill="none" stroke="rgb(179,179,179)" stroke-linejoin="round" d="M 14453,22643 L 14453,22493"/>
 <path fill="none" stroke="rgb(179,179,179)" stroke-linejoin="round" d="M 14453,22643 L 14453,22493"/>
 <path fill="none" stroke="rgb(179,179,179)" stroke-linejoin="round" d="M 18784,22643 L 18784,22493"/>
 <path fill="none" stroke="rgb(179,179,179)" stroke-linejoin="round" d="M 18784,22643 L 18784,22493"/>
 <path fill="none" stroke="rgb(179,179,179)" stroke-linejoin="round" d="M 23114,22643 L 23114,22493"/>
 <path fill="none" stroke="rgb(179,179,179)" stroke-linejoin="round" d="M 23114,22643 L 23114,22493"/>
 <path fill="none" stroke="rgb(179,179,179)" stroke-linejoin="round" d="M 27442,22643 L 27442,22493"/>
 <path fill="none" stroke="rgb(179,179,179)" stroke-linejoin="round" d="M 27442,22643 L 27442,22493"/>
 <path fill="none" stroke="rgb(179,179,179)" stroke-linejoin="round" d="M 31773,22643 L 31773,22493"/>
 <path fill="none" stroke="rgb(179,179,179)" stroke-linejoin="round" d="M 31773,22643 L 31773,22493"/>
 <path fill="none" stroke="rgb(179,179,179)" stroke-linejoin="round" d="M 36103,22643 L 36103,22493"/>
 <path fill="none" stroke="rgb(179,179,179)" stroke-linejoin="round" d="M 36103,22643 L 36103,22493"/>
 <path fill="none" stroke="rgb(179,179,179)" stroke-linejoin="round" d="M 40433,22643 L 40433,22493"/>
 <path fill="none" stroke="rgb(179,179,179)" stroke-linejoin="round" d="M 40433,22643 L 40433,22493"/>
 <path fill="none" stroke="rgb(179,179,179)" stroke-linejoin="round" d="M 44763,22643 L 44763,22493"/>
 <path fill="none" stroke="rgb(179,179,179)" stroke-linejoin="round" d="M 44763,22643 L 44763,22493"/>
 <path fill="none" stroke="rgb(179,179,179)" stroke-linejoin="round" d="M 49093,22643 L 49093,22493"/>
 <path fill="none" stroke="rgb(179,179,179)" stroke-linejoin="round" d="M 49093,22643 L 49093,22493"/>
 <path fill="none" stroke="rgb(179,179,179)" stroke-linejoin="round" d="M 1464,22493 L 49093,22493"/>
 <path fill="none" stroke="rgb(179,179,179)" stroke-linejoin="round" d="M 1314,22493 L 1464,22493"/>
 <path fill="none" stroke="rgb(179,179,179)" stroke-linejoin="round" d="M 1314,22493 L 1464,22493"/>
 <path fill="none" stroke="rgb(179,179,179)" stroke-linejoin="round" d="M 1314,19577 L 1464,19577"/>
 <path fill="none" stroke="rgb(179,179,179)" stroke-linejoin="round" d="M 1314,19577 L 1464,19577"/>
 <path fill="none" stroke="rgb(179,179,179)" stroke-linejoin="round" d="M 1314,16661 L 1464,16661"/>
 <path fill="none" stroke="rgb(179,179,179)" stroke-linejoin="round" d="M 1314,16661 L 1464,16661"/>
 <path fill="none" stroke="rgb(179,179,179)" stroke-linejoin="round" d="M 1314,13745 L 1464,13745"/>
 <path fill="none" stroke="rgb(179,179,179)" stroke-linejoin="round" d="M 1314,13745 L 1464,13745"/>
 <path fill="none" stroke="rgb(179,179,179)" stroke-linejoin="round" d="M 1314,10830 L 1464,10830"/>
 <path fill="none" stroke="rgb(179,179,179)" stroke-linejoin="round" d="M 1314,10830 L 1464,10830"/>
 <path fill="none" stroke="rgb(179,179,179)" stroke-linejoin="round" d="M 1314,7914 L 1464,7914"/>
 <path fill="none" stroke="rgb(179,179,179)" stroke-linejoin="round" d="M 1314,7914 L 1464,7914"/>
 <path fill="none" stroke="rgb(179,179,179)" stroke-linejoin="round" d="M 1314,4998 L 1464,4998"/>
 <path fill="none" stroke="rgb(179,179,179)" stroke-linejoin="round" d="M 1314,4998 L 1464,4998"/>
 <path fill="none" stroke="rgb(179,179,179)" stroke-linejoin="round" d="M 1314,2083 L 1464,2083"/>
 <path fill="none" stroke="rgb(179,179,179)" stroke-linejoin="round" d="M 1314,2083 L 1464,2083"/>
 <path fill="none" stroke="rgb(179,179,179)" stroke-linejoin="round" d="M 1464,22493 L 1464,2083"/>
 <path fill="rgb(0,69,134)" stroke="none" d="M 45845,22493 L 48010,22493 48010,22332 45845,22332 45845,22493 Z"/>
 <path fill="rgb(0,69,134)" stroke="none" d="M 41515,22493 L 43680,22493 43680,22398 41515,22398 41515,22493 Z"/>
 <path fill="rgb(0,69,134)" stroke="none" d="M 37185,22493 L 39350,22493 39350,22411 37185,22411 37185,22493 Z"/>
 <path fill="rgb(0,69,134)" stroke="none" d="M 32855,22493 L 35020,22493 35020,22267 32855,22267 32855,22493 Z"/>
 <path fill="rgb(0,69,134)" stroke="none" d="M 28525,22493 L 30690,22493 30690,22233 28525,22233 28525,22493 Z"/>
 <path fill="rgb(0,69,134)" stroke="none" d="M 24196,22493 L 26360,22493 26360,22288 24196,22288 24196,22493 Z"/>
 <path fill="rgb(0,69,134)" stroke="none" d="M 19866,22493 L 22031,22493 22031,4381 19866,4381 19866,22493 Z"/>
 <path fill="rgb(0,69,134)" stroke="none" d="M 15536,22493 L 17701,22493 17701,22230 15536,22230 15536,22493 Z"/>
 <path fill="rgb(0,69,134)" stroke="none" d="M 11206,22493 L 13371,22493 13371,22214 11206,22214 11206,22493 Z"/>
 <path fill="rgb(0,69,134)" stroke="none" d="M 6876,22493 L 9041,22493 9041,22197 6876,22197 6876,22493 Z"/>
 <path fill="rgb(0,69,134)" stroke="none" d="M 2546,22493 L 4711,22493 4711,21230 2546,21230 2546,22493 Z"/>
 <text class="TextShape"><tspan class="TextParagraph" font-family="DejaVu Sans, sans-serif" font-size="353px" font-weight="400"><tspan class="TextPosition" x="2266" y="23061"><tspan fill="rgb(0,0,0)" stroke="none">Chebyshev k=1</tspan></tspan></tspan></text>
 <text class="TextShape"><tspan class="TextParagraph" font-family="DejaVu Sans, sans-serif" font-size="353px" font-weight="400"><tspan class="TextPosition" x="6595" y="23061"><tspan fill="rgb(0,0,0)" stroke="none">Chebyshev k=2</tspan></tspan></tspan></text>
 <text class="TextShape"><tspan class="TextParagraph" font-family="DejaVu Sans, sans-serif" font-size="353px" font-weight="400"><tspan class="TextPosition" x="10926" y="23061"><tspan fill="rgb(0,0,0)" stroke="none">Chebyshev k=3</tspan></tspan></tspan></text>
 <text class="TextShape"><tspan class="TextParagraph" font-family="DejaVu Sans, sans-serif" font-size="353px" font-weight="400"><tspan class="TextPosition" x="15256" y="23061"><tspan fill="rgb(0,0,0)" stroke="none">Chebyshev k=4</tspan></tspan></tspan></text>
 <text class="TextShape"><tspan class="TextParagraph" font-family="DejaVu Sans, sans-serif" font-size="353px" font-weight="400"><tspan class="TextPosition" x="20433" y="23061"><tspan fill="rgb(0,0,0)" stroke="none">Jacobi</tspan></tspan></tspan></text>
 <text class="TextShape"><tspan class="TextParagraph" font-family="DejaVu Sans, sans-serif" font-size="353px" font-weight="400"><tspan class="TextPosition" x="24485" y="23061"><tspan fill="rgb(0,0,0)" stroke="none">Legendre</tspan></tspan></tspan></text>
 <text class="TextShape"><tspan class="TextParagraph" font-family="DejaVu Sans, sans-serif" font-size="353px" font-weight="400"><tspan class="TextPosition" x="28961" y="23061"><tspan fill="rgb(0,0,0)" stroke="none">Lobatto</tspan></tspan></tspan></text>
 <text class="TextShape"><tspan class="TextParagraph" font-family="DejaVu Sans, sans-serif" font-size="353px" font-weight="400"><tspan class="TextPosition" x="33396" y="23061"><tspan fill="rgb(0,0,0)" stroke="none">Radau</tspan></tspan></tspan></text>
 <text class="TextShape"><tspan class="TextParagraph" font-family="DejaVu Sans, sans-serif" font-size="353px" font-weight="400"><tspan class="TextPosition" x="36205" y="23061"><tspan fill="rgb(0,0,0)" stroke="none">Rectangle midpoint rule</tspan></tspan></tspan></text>
 <text class="TextShape"><tspan class="TextParagraph" font-family="DejaVu Sans, sans-serif" font-size="353px" font-weight="400"><tspan class="TextPosition" x="41712" y="23061"><tspan fill="rgb(0,0,0)" stroke="none">Simpson’s</tspan></tspan></tspan></text>
 <text class="TextShape"><tspan class="TextParagraph" font-family="DejaVu Sans, sans-serif" font-size="353px" font-weight="400"><tspan class="TextPosition" x="45923" y="23061"><tspan fill="rgb(0,0,0)" stroke="none">Trapezoidal</tspan></tspan></tspan></text>
 <text class="TextShape"><tspan class="TextParagraph" font-family="DejaVu Sans, sans-serif" font-size="353px" font-weight="400"><tspan class="TextPosition" x="1002" y="22614"><tspan fill="rgb(0,0,0)" stroke="none">0</tspan></tspan></tspan></text>
 <text class="TextShape"><tspan class="TextParagraph" font-family="DejaVu Sans, sans-serif" font-size="353px" font-weight="400"><tspan class="TextPosition" x="1002" y="19698"><tspan fill="rgb(0,0,0)" stroke="none">1</tspan></tspan></tspan></text>
 <text class="TextShape"><tspan class="TextParagraph" font-family="DejaVu Sans, sans-serif" font-size="353px" font-weight="400"><tspan class="TextPosition" x="1002" y="16782"><tspan fill="rgb(0,0,0)" stroke="none">2</tspan></tspan></tspan></text>
 <text class="TextShape"><tspan class="TextParagraph" font-family="DejaVu Sans, sans-serif" font-size="353px" font-weight="400"><tspan class="TextPosition" x="1002" y="13866"><tspan fill="rgb(0,0,0)" stroke="none">3</tspan></tspan></tspan></text>
 <text class="TextShape"><tspan class="TextParagraph" font-family="DejaVu Sans, sans-serif" font-size="353px" font-weight="400"><tspan class="TextPosition" x="1002" y="10950"><tspan fill="rgb(0,0,0)" stroke="none">4</tspan></tspan></tspan></text>
 <text class="TextShape"><tspan class="TextParagraph" font-family="DejaVu Sans, sans-serif" font-size="353px" font-weight="400"><tspan class="TextPosition" x="1002" y="8034"><tspan fill="rgb(0,0,0)" stroke="none">5</tspan></tspan></tspan></text>
 <text class="TextShape"><tspan class="TextParagraph" font-family="DejaVu Sans, sans-serif" font-size="353px" font-weight="400"><tspan class="TextPosition" x="1002" y="5118"><tspan fill="rgb(0,0,0)" stroke="none">6</tspan></tspan></tspan></text>
 <text class="TextShape"><tspan class="TextParagraph" font-family="DejaVu Sans, sans-serif" font-size="353px" font-weight="400"><tspan class="TextPosition" x="1002" y="2203"><tspan fill="rgb(0,0,0)" stroke="none">7</tspan></tspan></tspan></text>
 <text class="TextShape"><tspan class="TextParagraph" font-family="DejaVu Sans, sans-serif" font-size="353px" font-weight="400"><tspan class="TextPosition" x="3152" y="21052"><tspan fill="rgb(0,0,0)" stroke="none">0.433</tspan></tspan></tspan></text>
 <text class="TextShape"><tspan class="TextParagraph" font-family="DejaVu Sans, sans-serif" font-size="353px" font-weight="400"><tspan class="TextPosition" x="7482" y="22019"><tspan fill="rgb(0,0,0)" stroke="none">0.101</tspan></tspan></tspan></text>
 <text class="TextShape"><tspan class="TextParagraph" font-family="DejaVu Sans, sans-serif" font-size="353px" font-weight="400"><tspan class="TextPosition" x="11812" y="22036"><tspan fill="rgb(0,0,0)" stroke="none">0.095</tspan></tspan></tspan></text>
 <text class="TextShape"><tspan class="TextParagraph" font-family="DejaVu Sans, sans-serif" font-size="353px" font-weight="400"><tspan class="TextPosition" x="16142" y="22052"><tspan fill="rgb(0,0,0)" stroke="none">0.090</tspan></tspan></tspan></text>
 <text class="TextShape"><tspan class="TextParagraph" font-family="DejaVu Sans, sans-serif" font-size="353px" font-weight="400"><tspan class="TextPosition" x="20472" y="4203"><tspan fill="rgb(0,0,0)" stroke="none">6.212</tspan></tspan></tspan></text>
 <text class="TextShape"><tspan class="TextParagraph" font-family="DejaVu Sans, sans-serif" font-size="353px" font-weight="400"><tspan class="TextPosition" x="24802" y="22110"><tspan fill="rgb(0,0,0)" stroke="none">0.070</tspan></tspan></tspan></text>
 <text class="TextShape"><tspan class="TextParagraph" font-family="DejaVu Sans, sans-serif" font-size="353px" font-weight="400"><tspan class="TextPosition" x="29132" y="22055"><tspan fill="rgb(0,0,0)" stroke="none">0.089</tspan></tspan></tspan></text>
 <text class="TextShape"><tspan class="TextParagraph" font-family="DejaVu Sans, sans-serif" font-size="353px" font-weight="400"><tspan class="TextPosition" x="33462" y="22089"><tspan fill="rgb(0,0,0)" stroke="none">0.077</tspan></tspan></tspan></text>
 <text class="TextShape"><tspan class="TextParagraph" font-family="DejaVu Sans, sans-serif" font-size="353px" font-weight="400"><tspan class="TextPosition" x="37792" y="22233"><tspan fill="rgb(0,0,0)" stroke="none">0.028</tspan></tspan></tspan></text>
 <text class="TextShape"><tspan class="TextParagraph" font-family="DejaVu Sans, sans-serif" font-size="353px" font-weight="400"><tspan class="TextPosition" x="42122" y="22220"><tspan fill="rgb(0,0,0)" stroke="none">0.032</tspan></tspan></tspan></text>
 <text class="TextShape"><tspan class="TextParagraph" font-family="DejaVu Sans, sans-serif" font-size="353px" font-weight="400"><tspan class="TextPosition" x="46452" y="22154"><tspan fill="rgb(0,0,0)" stroke="none">0.055</tspan></tspan></tspan></text>
 <text class="TextShape"><tspan class="TextParagraph" font-family="DejaVu Sans, sans-serif" font-size="459px" font-weight="400"><tspan class="TextPosition" x="12680" y="1487"><tspan fill="rgb(0,0,0)" stroke="none">Root mean square of computation time (in seconds) for tests, excluding the simple pendulum test</tspan></tspan></tspan></text>
</svg>