<?xml version="1.0" encoding="UTF-8"?>
<!DOCTYPE svg PUBLIC "-//W3C//DTD SVG 1.1//EN" "http://www.w3.org/Graphics/SVG/1.1/DTD/svg11.dtd">
<svg width="523mm" height="228mm" viewBox="0 0 52300 22800" version="1.1" xmlns="http://www.w3.org/2000/svg" xmlns:xlink="http://www.w3.org/1999/xlink" stroke-width="28.222" stroke-linejoin="round" xml:space="preserve">
 <path fill="rgb(255,255,255)" stroke="none" d="M 26130,22806 L 0,22806 0,0 52259,0 52259,22806 26130,22806 Z"/>
 <path fill="none" stroke="rgb(179,179,179)" stroke-linejoin="round" d="M 26361,21703 L 1508,21703 1508,656 51214,656 51214,21703 26361,21703 Z"/>
 <path fill="none" stroke="rgb(179,179,179)" stroke-linejoin="round" d="M 51214,21702 L 1508,21702"/>
 <path fill="none" stroke="rgb(179,179,179)" stroke-linejoin="round" d="M 51214,18695 L 1508,18695"/>
 <path fill="none" stroke="rgb(179,179,179)" stroke-linejoin="round" d="M 51214,15688 L 1508,15688"/>
 <path fill="none" stroke="rgb(179,179,179)" stroke-linejoin="round" d="M 51214,12681 L 1508,12681"/>
 <path fill="none" stroke="rgb(179,179,179)" stroke-linejoin="round" d="M 51214,9675 L 1508,9675"/>
 <path fill="none" stroke="rgb(179,179,179)" stroke-linejoin="round" d="M 51214,6668 L 1508,6668"/>
 <path fill="none" stroke="rgb(179,179,179)" stroke-linejoin="round" d="M 51214,3661 L 1508,3661"/>
 <path fill="none" stroke="rgb(179,179,179)" stroke-linejoin="round" d="M 51214,655 L 1508,655"/>
 <path fill="none" stroke="rgb(179,179,179)" stroke-linejoin="round" d="M 1508,21852 L 1508,21702"/>
 <path fill="none" stroke="rgb(179,179,179)" stroke-linejoin="round" d="M 1508,21852 L 1508,21702"/>
 <path fill="none" stroke="rgb(179,179,179)" stroke-linejoin="round" d="M 5058,21852 L 5058,21702"/>
 <path fill="none" stroke="rgb(179,179,179)" stroke-linejoin="round" d="M 5058,21852 L 5058,21702"/>
 <path fill="none" stroke="rgb(179,179,179)" stroke-linejoin="round" d="M 8609,21852 L 8609,21702"/>
 <path fill="none" stroke="rgb(179,179,179)" stroke-linejoin="round" d="M 8609,21852 L 8609,21702"/>
 <path fill="none" stroke="rgb(179,179,179)" stroke-linejoin="round" d="M 12159,21852 L 12159,21702"/>
 <path fill="none" stroke="rgb(179,179,179)" stroke-linejoin="round" d="M 12159,21852 L 12159,21702"/>
 <path fill="none" stroke="rgb(179,179,179)" stroke-linejoin="round" d="M 15710,21852 L 15710,21702"/>
 <path fill="none" stroke="rgb(179,179,179)" stroke-linejoin="round" d="M 15710,21852 L 15710,21702"/>
 <path fill="none" stroke="rgb(179,179,179)" stroke-linejoin="round" d="M 19260,21852 L 19260,21702"/>
 <path fill="none" stroke="rgb(179,179,179)" stroke-linejoin="round" d="M 19260,21852 L 19260,21702"/>
 <path fill="none" stroke="rgb(179,179,179)" stroke-linejoin="round" d="M 22811,21852 L 22811,21702"/>
 <path fill="none" stroke="rgb(179,179,179)" stroke-linejoin="round" d="M 22811,21852 L 22811,21702"/>
 <path fill="none" stroke="rgb(179,179,179)" stroke-linejoin="round" d="M 26360,21852 L 26360,21702"/>
 <path fill="none" stroke="rgb(179,179,179)" stroke-linejoin="round" d="M 26360,21852 L 26360,21702"/>
 <path fill="none" stroke="rgb(179,179,179)" stroke-linejoin="round" d="M 29911,21852 L 29911,21702"/>
 <path fill="none" stroke="rgb(179,179,179)" stroke-linejoin="round" d="M 29911,21852 L 29911,21702"/>
 <path fill="none" stroke="rgb(179,179,179)" stroke-linejoin="round" d="M 33461,21852 L 33461,21702"/>
 <path fill="none" stroke="rgb(179,179,179)" stroke-linejoin="round" d="M 33461,21852 L 33461,21702"/>
 <path fill="none" stroke="rgb(179,179,179)" stroke-linejoin="round" d="M 37011,21852 L 37011,21702"/>
 <path fill="none" stroke="rgb(179,179,179)" stroke-linejoin="round" d="M 37011,21852 L 37011,21702"/>
 <path fill="none" stroke="rgb(179,179,179)" stroke-linejoin="round" d="M 40562,21852 L 40562,21702"/>
 <path fill="none" stroke="rgb(179,179,179)" stroke-linejoin="round" d="M 40562,21852 L 40562,21702"/>
 <path fill="none" stroke="rgb(179,179,179)" stroke-linejoin="round" d="M 44113,21852 L 44113,21702"/>
 <path fill="none" stroke="rgb(179,179,179)" stroke-linejoin="round" d="M 44113,21852 L 44113,21702"/>
 <path fill="none" stroke="rgb(179,179,179)" stroke-linejoin="round" d="M 47663,21852 L 47663,21702"/>
 <path fill="none" stroke="rgb(179,179,179)" stroke-linejoin="round" d="M 47663,21852 L 47663,21702"/>
 <path fill="none" stroke="rgb(179,179,179)" stroke-linejoin="round" d="M 51214,21852 L 51214,21702"/>
 <path fill="none" stroke="rgb(179,179,179)" stroke-linejoin="round" d="M 51214,21852 L 51214,21702"/>
 <path fill="none" stroke="rgb(179,179,179)" stroke-linejoin="round" d="M 1508,21702 L 51214,21702"/>
 <path fill="none" stroke="rgb(179,179,179)" stroke-linejoin="round" d="M 1358,21702 L 1508,21702"/>
 <path fill="none" stroke="rgb(179,179,179)" stroke-linejoin="round" d="M 1358,21702 L 1508,21702"/>
 <path fill="none" stroke="rgb(179,179,179)" stroke-linejoin="round" d="M 1358,18695 L 1508,18695"/>
 <path fill="none" stroke="rgb(179,179,179)" stroke-linejoin="round" d="M 1358,18695 L 1508,18695"/>
 <path fill="none" stroke="rgb(179,179,179)" stroke-linejoin="round" d="M 1358,15688 L 1508,15688"/>
 <path fill="none" stroke="rgb(179,179,179)" stroke-linejoin="round" d="M 1358,15688 L 1508,15688"/>
 <path fill="none" stroke="rgb(179,179,179)" stroke-linejoin="round" d="M 1358,12681 L 1508,12681"/>
 <path fill="none" stroke="rgb(179,179,179)" stroke-linejoin="round" d="M 1358,12681 L 1508,12681"/>
 <path fill="none" stroke="rgb(179,179,179)" stroke-linejoin="round" d="M 1358,9675 L 1508,9675"/>
 <path fill="none" stroke="rgb(179,179,179)" stroke-linejoin="round" d="M 1358,9675 L 1508,9675"/>
 <path fill="none" stroke="rgb(179,179,179)" stroke-linejoin="round" d="M 1358,6668 L 1508,6668"/>
 <path fill="none" stroke="rgb(179,179,179)" stroke-linejoin="round" d="M 1358,6668 L 1508,6668"/>
 <path fill="none" stroke="rgb(179,179,179)" stroke-linejoin="round" d="M 1358,3661 L 1508,3661"/>
 <path fill="none" stroke="rgb(179,179,179)" stroke-linejoin="round" d="M 1358,3661 L 1508,3661"/>
 <path fill="none" stroke="rgb(179,179,179)" stroke-linejoin="round" d="M 1358,655 L 1508,655"/>
 <path fill="none" stroke="rgb(179,179,179)" stroke-linejoin="round" d="M 1358,655 L 1508,655"/>
 <path fill="none" stroke="rgb(179,179,179)" stroke-linejoin="round" d="M 1508,21702 L 1508,655"/>
 <path fill="rgb(0,69,134)" stroke="none" d="M 48551,21702 L 50326,21702 50326,21545 48551,21545 48551,21702 Z"/>
 <path fill="rgb(0,69,134)" stroke="none" d="M 45000,21702 L 46775,21702 46775,21611 45000,21611 45000,21702 Z"/>
 <path fill="rgb(0,69,134)" stroke="none" d="M 41450,21702 L 43225,21702 43225,21651 41450,21651 41450,21702 Z"/>
 <path fill="rgb(0,69,134)" stroke="none" d="M 37899,21702 L 39674,21702 39674,21213 37899,21213 37899,21702 Z"/>
 <path fill="rgb(0,69,134)" stroke="none" d="M 34349,21702 L 36124,21702 36124,21623 34349,21623 34349,21702 Z"/>
 <path fill="rgb(0,69,134)" stroke="none" d="M 30798,21702 L 32573,21702 32573,21480 30798,21480 30798,21702 Z"/>
 <path fill="rgb(0,69,134)" stroke="none" d="M 27248,21702 L 29023,21702 29023,21453 27248,21453 27248,21702 Z"/>
 <path fill="rgb(0,69,134)" stroke="none" d="M 23698,21702 L 25473,21702 25473,21498 23698,21498 23698,21702 Z"/>
 <path fill="rgb(0,69,134)" stroke="none" d="M 20148,21702 L 21923,21702 21923,3743 20148,3743 20148,21702 Z"/>
 <path fill="rgb(0,69,134)" stroke="none" d="M 16597,21702 L 18372,21702 18372,21407 16597,21407 16597,21702 Z"/>
 <path fill="rgb(0,69,134)" stroke="none" d="M 13047,21702 L 14822,21702 14822,21432 13047,21432 13047,21702 Z"/>
 <path fill="rgb(0,69,134)" stroke="none" d="M 9496,21702 L 11271,21702 11271,21434 9496,21434 9496,21702 Z"/>
 <path fill="rgb(0,69,134)" stroke="none" d="M 5946,21702 L 7721,21702 7721,20752 5946,20752 5946,21702 Z"/>
 <path fill="rgb(0,69,134)" stroke="none" d="M 2395,21702 L 4170,21702 4170,21262 2395,21262 2395,21702 Z"/>
 <text class="TextShape"><tspan class="TextParagraph" font-family="DejaVu Sans, sans-serif" font-size="353px" font-weight="400"><tspan class="TextPosition" x="1576" y="22270"><tspan fill="rgb(0,0,0)" stroke="none">Adaptive Simpson’s</tspan></tspan></tspan></text>
 <text class="TextShape"><tspan class="TextParagraph" font-family="DejaVu Sans, sans-serif" font-size="353px" font-weight="400"><tspan class="TextPosition" x="5470" y="22270"><tspan fill="rgb(0,0,0)" stroke="none">Chebyshev k=1</tspan></tspan></tspan></text>
 <text class="TextShape"><tspan class="TextParagraph" font-family="DejaVu Sans, sans-serif" font-size="353px" font-weight="400"><tspan class="TextPosition" x="9021" y="22270"><tspan fill="rgb(0,0,0)" stroke="none">Chebyshev k=2</tspan></tspan></tspan></text>
 <text class="TextShape"><tspan class="TextParagraph" font-family="DejaVu Sans, sans-serif" font-size="353px" font-weight="400"><tspan class="TextPosition" x="12571" y="22270"><tspan fill="rgb(0,0,0)" stroke="none">Chebyshev k=3</tspan></tspan></tspan></text>
 <text class="TextShape"><tspan class="TextParagraph" font-family="DejaVu Sans, sans-serif" font-size="353px" font-weight="400"><tspan class="TextPosition" x="16122" y="22270"><tspan fill="rgb(0,0,0)" stroke="none">Chebyshev k=4</tspan></tspan></tspan></text>
 <text class="TextShape"><tspan class="TextParagraph" font-family="DejaVu Sans, sans-serif" font-size="353px" font-weight="400"><tspan class="TextPosition" x="20519" y="22270"><tspan fill="rgb(0,0,0)" stroke="none">Jacobi</tspan></tspan></tspan></text>
 <text class="TextShape"><tspan class="TextParagraph" font-family="DejaVu Sans, sans-serif" font-size="353px" font-weight="400"><tspan class="TextPosition" x="23792" y="22270"><tspan fill="rgb(0,0,0)" stroke="none">Legendre</tspan></tspan></tspan></text>
 <text class="TextShape"><tspan class="TextParagraph" font-family="DejaVu Sans, sans-serif" font-size="353px" font-weight="400"><tspan class="TextPosition" x="27488" y="22270"><tspan fill="rgb(0,0,0)" stroke="none">Lobatto</tspan></tspan></tspan></text>
 <text class="TextShape"><tspan class="TextParagraph" font-family="DejaVu Sans, sans-serif" font-size="353px" font-weight="400"><tspan class="TextPosition" x="31144" y="22270"><tspan fill="rgb(0,0,0)" stroke="none">Radau</tspan></tspan></tspan></text>
 <text class="TextShape"><tspan class="TextParagraph" font-family="DejaVu Sans, sans-serif" font-size="353px" font-weight="400"><tspan class="TextPosition" x="33557" y="22270"><tspan fill="rgb(0,0,0)" stroke="none">Rectangle midpoint</tspan></tspan></tspan></text>
 <text class="TextShape"><tspan class="TextParagraph" font-family="DejaVu Sans, sans-serif" font-size="353px" font-weight="400"><tspan class="TextPosition" x="37862" y="22270"><tspan fill="rgb(0,0,0)" stroke="none">Romberg’s</tspan></tspan></tspan></text>
 <text class="TextShape"><tspan class="TextParagraph" font-family="DejaVu Sans, sans-serif" font-size="353px" font-weight="400"><tspan class="TextPosition" x="41068" y="22270"><tspan fill="rgb(0,0,0)" stroke="none">Simpson’s rule</tspan></tspan></tspan></text>
 <text class="TextShape"><tspan class="TextParagraph" font-family="DejaVu Sans, sans-serif" font-size="353px" font-weight="400"><tspan class="TextPosition" x="44301" y="22270"><tspan fill="rgb(0,0,0)" stroke="none">Simpson’s 3/8 rule</tspan></tspan></tspan></text>
 <text class="TextShape"><tspan class="TextParagraph" font-family="DejaVu Sans, sans-serif" font-size="353px" font-weight="400"><tspan class="TextPosition" x="48050" y="22270"><tspan fill="rgb(0,0,0)" stroke="none">Trapezoidal rule</tspan></tspan></tspan></text>
 <text class="TextShape"><tspan class="TextParagraph" font-family="DejaVu Sans, sans-serif" font-size="353px" font-weight="400"><tspan class="TextPosition" x="1046" y="21823"><tspan fill="rgb(0,0,0)" stroke="none">0</tspan></tspan></tspan></text>
 <text class="TextShape"><tspan class="TextParagraph" font-family="DejaVu Sans, sans-serif" font-size="353px" font-weight="400"><tspan class="TextPosition" x="1046" y="18816"><tspan fill="rgb(0,0,0)" stroke="none">1</tspan></tspan></tspan></text>
 <text class="TextShape"><tspan class="TextParagraph" font-family="DejaVu Sans, sans-serif" font-size="353px" font-weight="400"><tspan class="TextPosition" x="1046" y="15809"><tspan fill="rgb(0,0,0)" stroke="none">2</tspan></tspan></tspan></text>
 <text class="TextShape"><tspan class="TextParagraph" font-family="DejaVu Sans, sans-serif" font-size="353px" font-weight="400"><tspan class="TextPosition" x="1046" y="12802"><tspan fill="rgb(0,0,0)" stroke="none">3</tspan></tspan></tspan></text>
 <text class="TextShape"><tspan class="TextParagraph" font-family="DejaVu Sans, sans-serif" font-size="353px" font-weight="400"><tspan class="TextPosition" x="1046" y="9795"><tspan fill="rgb(0,0,0)" stroke="none">4</tspan></tspan></tspan></text>
 <text class="TextShape"><tspan class="TextParagraph" font-family="DejaVu Sans, sans-serif" font-size="353px" font-weight="400"><tspan class="TextPosition" x="1046" y="6788"><tspan fill="rgb(0,0,0)" stroke="none">5</tspan></tspan></tspan></text>
 <text class="TextShape"><tspan class="TextParagraph" font-family="DejaVu Sans, sans-serif" font-size="353px" font-weight="400"><tspan class="TextPosition" x="1046" y="3781"><tspan fill="rgb(0,0,0)" stroke="none">6</tspan></tspan></tspan></text>
 <text class="TextShape"><tspan class="TextParagraph" font-family="DejaVu Sans, sans-serif" font-size="353px" font-weight="400"><tspan class="TextPosition" x="1046" y="775"><tspan fill="rgb(0,0,0)" stroke="none">7</tspan></tspan></tspan></text>
</svg>