<?xml version="1.0" encoding="UTF-8"?>
<!DOCTYPE svg PUBLIC "-//W3C//DTD SVG 1.1//EN" "http://www.w3.org/Graphics/SVG/1.1/DTD/svg11.dtd">
<svg width="521mm" height="228mm" viewBox="0 0 52100 22800" version="1.1" xmlns="http://www.w3.org/2000/svg" xmlns:xlink="http://www.w3.org/1999/xlink" stroke-width="28.222" stroke-linejoin="round" xml:space="preserve">
 <path fill="rgb(255,255,255)" stroke="none" d="M 26061,22831 L 0,22831 0,0 52121,0 52121,22831 26061,22831 Z"/>
 <path fill="none" stroke="rgb(179,179,179)" stroke-linejoin="round" d="M 26292,21728 L 1505,21728 1505,456 51079,456 51079,21728 26292,21728 Z"/>
 <path fill="none" stroke="rgb(179,179,179)" stroke-linejoin="round" d="M 51079,21727 L 1505,21727"/>
 <path fill="none" stroke="rgb(179,179,179)" stroke-linejoin="round" d="M 51079,18295 L 1505,18295"/>
 <path fill="none" stroke="rgb(179,179,179)" stroke-linejoin="round" d="M 51079,14864 L 1505,14864"/>
 <path fill="none" stroke="rgb(179,179,179)" stroke-linejoin="round" d="M 51079,11433 L 1505,11433"/>
 <path fill="none" stroke="rgb(179,179,179)" stroke-linejoin="round" d="M 51079,8003 L 1505,8003"/>
 <path fill="none" stroke="rgb(179,179,179)" stroke-linejoin="round" d="M 51079,4572 L 1505,4572"/>
 <path fill="none" stroke="rgb(179,179,179)" stroke-linejoin="round" d="M 51079,1141 L 1505,1141"/>
 <path fill="none" stroke="rgb(179,179,179)" stroke-linejoin="round" d="M 1505,21877 L 1505,21727"/>
 <path fill="none" stroke="rgb(179,179,179)" stroke-linejoin="round" d="M 1505,21877 L 1505,21727"/>
 <path fill="none" stroke="rgb(179,179,179)" stroke-linejoin="round" d="M 5046,21877 L 5046,21727"/>
 <path fill="none" stroke="rgb(179,179,179)" stroke-linejoin="round" d="M 5046,21877 L 5046,21727"/>
 <path fill="none" stroke="rgb(179,179,179)" stroke-linejoin="round" d="M 8587,21877 L 8587,21727"/>
 <path fill="none" stroke="rgb(179,179,179)" stroke-linejoin="round" d="M 8587,21877 L 8587,21727"/>
 <path fill="none" stroke="rgb(179,179,179)" stroke-linejoin="round" d="M 12128,21877 L 12128,21727"/>
 <path fill="none" stroke="rgb(179,179,179)" stroke-linejoin="round" d="M 12128,21877 L 12128,21727"/>
 <path fill="none" stroke="rgb(179,179,179)" stroke-linejoin="round" d="M 15669,21877 L 15669,21727"/>
 <path fill="none" stroke="rgb(179,179,179)" stroke-linejoin="round" d="M 15669,21877 L 15669,21727"/>
 <path fill="none" stroke="rgb(179,179,179)" stroke-linejoin="round" d="M 19210,21877 L 19210,21727"/>
 <path fill="none" stroke="rgb(179,179,179)" stroke-linejoin="round" d="M 19210,21877 L 19210,21727"/>
 <path fill="none" stroke="rgb(179,179,179)" stroke-linejoin="round" d="M 22751,21877 L 22751,21727"/>
 <path fill="none" stroke="rgb(179,179,179)" stroke-linejoin="round" d="M 22751,21877 L 22751,21727"/>
 <path fill="none" stroke="rgb(179,179,179)" stroke-linejoin="round" d="M 26291,21877 L 26291,21727"/>
 <path fill="none" stroke="rgb(179,179,179)" stroke-linejoin="round" d="M 26291,21877 L 26291,21727"/>
 <path fill="none" stroke="rgb(179,179,179)" stroke-linejoin="round" d="M 29832,21877 L 29832,21727"/>
 <path fill="none" stroke="rgb(179,179,179)" stroke-linejoin="round" d="M 29832,21877 L 29832,21727"/>
 <path fill="none" stroke="rgb(179,179,179)" stroke-linejoin="round" d="M 33373,21877 L 33373,21727"/>
 <path fill="none" stroke="rgb(179,179,179)" stroke-linejoin="round" d="M 33373,21877 L 33373,21727"/>
 <path fill="none" stroke="rgb(179,179,179)" stroke-linejoin="round" d="M 36914,21877 L 36914,21727"/>
 <path fill="none" stroke="rgb(179,179,179)" stroke-linejoin="round" d="M 36914,21877 L 36914,21727"/>
 <path fill="none" stroke="rgb(179,179,179)" stroke-linejoin="round" d="M 40455,21877 L 40455,21727"/>
 <path fill="none" stroke="rgb(179,179,179)" stroke-linejoin="round" d="M 40455,21877 L 40455,21727"/>
 <path fill="none" stroke="rgb(179,179,179)" stroke-linejoin="round" d="M 43996,21877 L 43996,21727"/>
 <path fill="none" stroke="rgb(179,179,179)" stroke-linejoin="round" d="M 43996,21877 L 43996,21727"/>
 <path fill="none" stroke="rgb(179,179,179)" stroke-linejoin="round" d="M 47537,21877 L 47537,21727"/>
 <path fill="none" stroke="rgb(179,179,179)" stroke-linejoin="round" d="M 47537,21877 L 47537,21727"/>
 <path fill="none" stroke="rgb(179,179,179)" stroke-linejoin="round" d="M 51079,21877 L 51079,21727"/>
 <path fill="none" stroke="rgb(179,179,179)" stroke-linejoin="round" d="M 51079,21877 L 51079,21727"/>
 <path fill="none" stroke="rgb(179,179,179)" stroke-linejoin="round" d="M 1505,21727 L 51079,21727"/>
 <path fill="none" stroke="rgb(179,179,179)" stroke-linejoin="round" d="M 1355,21727 L 1505,21727"/>
 <path fill="none" stroke="rgb(179,179,179)" stroke-linejoin="round" d="M 1355,21727 L 1505,21727"/>
 <path fill="none" stroke="rgb(179,179,179)" stroke-linejoin="round" d="M 1355,18295 L 1505,18295"/>
 <path fill="none" stroke="rgb(179,179,179)" stroke-linejoin="round" d="M 1355,18295 L 1505,18295"/>
 <path fill="none" stroke="rgb(179,179,179)" stroke-linejoin="round" d="M 1355,14864 L 1505,14864"/>
 <path fill="none" stroke="rgb(179,179,179)" stroke-linejoin="round" d="M 1355,14864 L 1505,14864"/>
 <path fill="none" stroke="rgb(179,179,179)" stroke-linejoin="round" d="M 1355,11433 L 1505,11433"/>
 <path fill="none" stroke="rgb(179,179,179)" stroke-linejoin="round" d="M 1355,11433 L 1505,11433"/>
 <path fill="none" stroke="rgb(179,179,179)" stroke-linejoin="round" d="M 1355,8003 L 1505,8003"/>
 <path fill="none" stroke="rgb(179,179,179)" stroke-linejoin="round" d="M 1355,8003 L 1505,8003"/>
 <path fill="none" stroke="rgb(179,179,179)" stroke-linejoin="round" d="M 1355,4572 L 1505,4572"/>
 <path fill="none" stroke="rgb(179,179,179)" stroke-linejoin="round" d="M 1355,4572 L 1505,4572"/>
 <path fill="none" stroke="rgb(179,179,179)" stroke-linejoin="round" d="M 1355,1141 L 1505,1141"/>
 <path fill="none" stroke="rgb(179,179,179)" stroke-linejoin="round" d="M 1355,1141 L 1505,1141"/>
 <path fill="none" stroke="rgb(179,179,179)" stroke-linejoin="round" d="M 1505,21727 L 1505,455"/>
 <path fill="rgb(0,69,134)" stroke="none" d="M 48423,21727 L 50193,21727 50193,21548 48423,21548 48423,21727 Z"/>
 <path fill="rgb(0,69,134)" stroke="none" d="M 44882,21727 L 46652,21727 46652,21623 44882,21623 44882,21727 Z"/>
 <path fill="rgb(0,69,134)" stroke="none" d="M 41341,21727 L 43111,21727 43111,21669 41341,21669 41341,21727 Z"/>
 <path fill="rgb(0,69,134)" stroke="none" d="M 37799,21727 L 39570,21727 39570,21169 37799,21169 37799,21727 Z"/>
 <path fill="rgb(0,69,134)" stroke="none" d="M 34258,21727 L 36029,21727 36029,21637 34258,21637 34258,21727 Z"/>
 <path fill="rgb(0,69,134)" stroke="none" d="M 30717,21727 L 32488,21727 32488,21474 30717,21474 30717,21727 Z"/>
 <path fill="rgb(0,69,134)" stroke="none" d="M 27176,21727 L 28947,21727 28947,21443 27176,21443 27176,21727 Z"/>
 <path fill="rgb(0,69,134)" stroke="none" d="M 23636,21727 L 25407,21727 25407,21494 23636,21494 23636,21727 Z"/>
 <path fill="rgb(0,69,134)" stroke="none" d="M 20095,21727 L 21866,21727 21866,1234 20095,1234 20095,21727 Z"/>
 <path fill="rgb(0,69,134)" stroke="none" d="M 16554,21727 L 18325,21727 18325,21390 16554,21390 16554,21727 Z"/>
 <path fill="rgb(0,69,134)" stroke="none" d="M 13013,21727 L 14784,21727 14784,21420 13013,21420 13013,21727 Z"/>
 <path fill="rgb(0,69,134)" stroke="none" d="M 9472,21727 L 11242,21727 11242,21421 9472,21421 9472,21727 Z"/>
 <path fill="rgb(0,69,134)" stroke="none" d="M 5931,21727 L 7701,21727 7701,20643 5931,20643 5931,21727 Z"/>
 <path fill="rgb(0,69,134)" stroke="none" d="M 2390,21727 L 4160,21727 4160,21225 2390,21225 2390,21727 Z"/>
 <text class="TextShape"><tspan class="TextParagraph" font-family="DejaVu Sans, sans-serif" font-size="353px" font-weight="400"><tspan class="TextPosition" x="1568" y="22295"><tspan fill="rgb(0,0,0)" stroke="none">Adaptive Simpson’s</tspan></tspan></tspan></text>
 <text class="TextShape"><tspan class="TextParagraph" font-family="DejaVu Sans, sans-serif" font-size="353px" font-weight="400"><tspan class="TextPosition" x="5453" y="22295"><tspan fill="rgb(0,0,0)" stroke="none">Chebyshev k=1</tspan></tspan></tspan></text>
 <text class="TextShape"><tspan class="TextParagraph" font-family="DejaVu Sans, sans-serif" font-size="353px" font-weight="400"><tspan class="TextPosition" x="8994" y="22295"><tspan fill="rgb(0,0,0)" stroke="none">Chebyshev k=2</tspan></tspan></tspan></text>
 <text class="TextShape"><tspan class="TextParagraph" font-family="DejaVu Sans, sans-serif" font-size="353px" font-weight="400"><tspan class="TextPosition" x="12535" y="22295"><tspan fill="rgb(0,0,0)" stroke="none">Chebyshev k=3</tspan></tspan></tspan></text>
 <text class="TextShape"><tspan class="TextParagraph" font-family="DejaVu Sans, sans-serif" font-size="353px" font-weight="400"><tspan class="TextPosition" x="16076" y="22295"><tspan fill="rgb(0,0,0)" stroke="none">Chebyshev k=4</tspan></tspan></tspan></text>
 <text class="TextShape"><tspan class="TextParagraph" font-family="DejaVu Sans, sans-serif" font-size="353px" font-weight="400"><tspan class="TextPosition" x="20464" y="22295"><tspan fill="rgb(0,0,0)" stroke="none">Jacobi</tspan></tspan></tspan></text>
 <text class="TextShape"><tspan class="TextParagraph" font-family="DejaVu Sans, sans-serif" font-size="353px" font-weight="400"><tspan class="TextPosition" x="23727" y="22295"><tspan fill="rgb(0,0,0)" stroke="none">Legendre</tspan></tspan></tspan></text>
 <text class="TextShape"><tspan class="TextParagraph" font-family="DejaVu Sans, sans-serif" font-size="353px" font-weight="400"><tspan class="TextPosition" x="27415" y="22295"><tspan fill="rgb(0,0,0)" stroke="none">Lobatto</tspan></tspan></tspan></text>
 <text class="TextShape"><tspan class="TextParagraph" font-family="DejaVu Sans, sans-serif" font-size="353px" font-weight="400"><tspan class="TextPosition" x="31061" y="22295"><tspan fill="rgb(0,0,0)" stroke="none">Radau</tspan></tspan></tspan></text>
 <text class="TextShape"><tspan class="TextParagraph" font-family="DejaVu Sans, sans-serif" font-size="353px" font-weight="400"><tspan class="TextPosition" x="33465" y="22295"><tspan fill="rgb(0,0,0)" stroke="none">Rectangle midpoint</tspan></tspan></tspan></text>
 <text class="TextShape"><tspan class="TextParagraph" font-family="DejaVu Sans, sans-serif" font-size="353px" font-weight="400"><tspan class="TextPosition" x="37760" y="22295"><tspan fill="rgb(0,0,0)" stroke="none">Romberg’s</tspan></tspan></tspan></text>
 <text class="TextShape"><tspan class="TextParagraph" font-family="DejaVu Sans, sans-serif" font-size="353px" font-weight="400"><tspan class="TextPosition" x="40957" y="22295"><tspan fill="rgb(0,0,0)" stroke="none">Simpson’s rule</tspan></tspan></tspan></text>
 <text class="TextShape"><tspan class="TextParagraph" font-family="DejaVu Sans, sans-serif" font-size="353px" font-weight="400"><tspan class="TextPosition" x="44180" y="22295"><tspan fill="rgb(0,0,0)" stroke="none">Simpson’s 3/8 rule</tspan></tspan></tspan></text>
 <text class="TextShape"><tspan class="TextParagraph" font-family="DejaVu Sans, sans-serif" font-size="353px" font-weight="400"><tspan class="TextPosition" x="47920" y="22295"><tspan fill="rgb(0,0,0)" stroke="none">Trapezoidal rule</tspan></tspan></tspan></text>
 <text class="TextShape"><tspan class="TextParagraph" font-family="DejaVu Sans, sans-serif" font-size="353px" font-weight="400"><tspan class="TextPosition" x="1043" y="21848"><tspan fill="rgb(0,0,0)" stroke="none">0</tspan></tspan></tspan></text>
 <text class="TextShape"><tspan class="TextParagraph" font-family="DejaVu Sans, sans-serif" font-size="353px" font-weight="400"><tspan class="TextPosition" x="1043" y="18416"><tspan fill="rgb(0,0,0)" stroke="none">1</tspan></tspan></tspan></text>
 <text class="TextShape"><tspan class="TextParagraph" font-family="DejaVu Sans, sans-serif" font-size="353px" font-weight="400"><tspan class="TextPosition" x="1043" y="14985"><tspan fill="rgb(0,0,0)" stroke="none">2</tspan></tspan></tspan></text>
 <text class="TextShape"><tspan class="TextParagraph" font-family="DejaVu Sans, sans-serif" font-size="353px" font-weight="400"><tspan class="TextPosition" x="1043" y="11554"><tspan fill="rgb(0,0,0)" stroke="none">3</tspan></tspan></tspan></text>
 <text class="TextShape"><tspan class="TextParagraph" font-family="DejaVu Sans, sans-serif" font-size="353px" font-weight="400"><tspan class="TextPosition" x="1043" y="8123"><tspan fill="rgb(0,0,0)" stroke="none">4</tspan></tspan></tspan></text>
 <text class="TextShape"><tspan class="TextParagraph" font-family="DejaVu Sans, sans-serif" font-size="353px" font-weight="400"><tspan class="TextPosition" x="1043" y="4692"><tspan fill="rgb(0,0,0)" stroke="none">5</tspan></tspan></tspan></text>
 <text class="TextShape"><tspan class="TextParagraph" font-family="DejaVu Sans, sans-serif" font-size="353px" font-weight="400"><tspan class="TextPosition" x="1043" y="1261"><tspan fill="rgb(0,0,0)" stroke="none">6</tspan></tspan></tspan></text>
 <text class="TextShape"><tspan class="TextParagraph" font-family="DejaVu Sans, sans-serif" font-size="353px" font-weight="400"><tspan class="TextPosition" x="2693" y="21047"><tspan fill="rgb(0,0,0)" stroke="none">0.1462</tspan></tspan></tspan></text>
 <text class="TextShape"><tspan class="TextParagraph" font-family="DejaVu Sans, sans-serif" font-size="353px" font-weight="400"><tspan class="TextPosition" x="6234" y="20465"><tspan fill="rgb(0,0,0)" stroke="none">0.3159</tspan></tspan></tspan></text>
 <text class="TextShape"><tspan class="TextParagraph" font-family="DejaVu Sans, sans-serif" font-size="353px" font-weight="400"><tspan class="TextPosition" x="9775" y="21243"><tspan fill="rgb(0,0,0)" stroke="none">0.0889</tspan></tspan></tspan></text>
 <text class="TextShape"><tspan class="TextParagraph" font-family="DejaVu Sans, sans-serif" font-size="353px" font-weight="400"><tspan class="TextPosition" x="13316" y="21242"><tspan fill="rgb(0,0,0)" stroke="none">0.0895</tspan></tspan></tspan></text>
 <text class="TextShape"><tspan class="TextParagraph" font-family="DejaVu Sans, sans-serif" font-size="353px" font-weight="400"><tspan class="TextPosition" x="16857" y="21212"><tspan fill="rgb(0,0,0)" stroke="none">0.0980</tspan></tspan></tspan></text>
 <text class="TextShape"><tspan class="TextParagraph" font-family="DejaVu Sans, sans-serif" font-size="353px" font-weight="400"><tspan class="TextPosition" x="20398" y="1056"><tspan fill="rgb(0,0,0)" stroke="none">5.9728</tspan></tspan></tspan></text>
 <text class="TextShape"><tspan class="TextParagraph" font-family="DejaVu Sans, sans-serif" font-size="353px" font-weight="400"><tspan class="TextPosition" x="23939" y="21316"><tspan fill="rgb(0,0,0)" stroke="none">0.0677</tspan></tspan></tspan></text>
 <text class="TextShape"><tspan class="TextParagraph" font-family="DejaVu Sans, sans-serif" font-size="353px" font-weight="400"><tspan class="TextPosition" x="27481" y="21265"><tspan fill="rgb(0,0,0)" stroke="none">0.0828</tspan></tspan></tspan></text>
 <text class="TextShape"><tspan class="TextParagraph" font-family="DejaVu Sans, sans-serif" font-size="353px" font-weight="400"><tspan class="TextPosition" x="31022" y="21296"><tspan fill="rgb(0,0,0)" stroke="none">0.0735</tspan></tspan></tspan></text>
 <text class="TextShape"><tspan class="TextParagraph" font-family="DejaVu Sans, sans-serif" font-size="353px" font-weight="400"><tspan class="TextPosition" x="34563" y="21459"><tspan fill="rgb(0,0,0)" stroke="none">0.0261</tspan></tspan></tspan></text>
 <text class="TextShape"><tspan class="TextParagraph" font-family="DejaVu Sans, sans-serif" font-size="353px" font-weight="400"><tspan class="TextPosition" x="38104" y="20991"><tspan fill="rgb(0,0,0)" stroke="none">0.1626</tspan></tspan></tspan></text>
 <text class="TextShape"><tspan class="TextParagraph" font-family="DejaVu Sans, sans-serif" font-size="353px" font-weight="400"><tspan class="TextPosition" x="41645" y="21491"><tspan fill="rgb(0,0,0)" stroke="none">0.0168</tspan></tspan></tspan></text>
 <text class="TextShape"><tspan class="TextParagraph" font-family="DejaVu Sans, sans-serif" font-size="353px" font-weight="400"><tspan class="TextPosition" x="45186" y="21445"><tspan fill="rgb(0,0,0)" stroke="none">0.0301</tspan></tspan></tspan></text>
 <text class="TextShape"><tspan class="TextParagraph" font-family="DejaVu Sans, sans-serif" font-size="353px" font-weight="400"><tspan class="TextPosition" x="48727" y="21370"><tspan fill="rgb(0,0,0)" stroke="none">0.0520</tspan></tspan></tspan></text>
</svg>